<?xml version="1.0" encoding="utf-8"?>
<!-- Generator: Adobe Illustrator 24.2.0, SVG Export Plug-In . SVG Version: 6.00 Build 0)  -->
<svg version="1.1" id="Layer_1" xmlns="http://www.w3.org/2000/svg" xmlns:xlink="http://www.w3.org/1999/xlink" x="0px" y="0px"
	 viewBox="0 0 76.4 61.4" style="enable-background:new 0 0 76.4 61.4;" xml:space="preserve">
<style type="text/css">
	.st0{fill:#05141f;}
</style>
<g>
	<path class="st0" d="M58.3,61.4c-4,0-7.3-2.9-7.8-6.8H25.9c-0.2,1.5-0.9,3-1.9,4.1c-1.5,1.7-3.7,2.6-6,2.6H9.4
		c-4.5,0-8.3-3.6-8.4-8.1c0-0.8-0.2-4-0.3-5.4c-0.6-6.7-1.4-15,0.7-21c-0.9-1.6-1.3-3.4-1-5.2c0.5-3.4,3.6-9.5,10.6-10
		c1.5-3.2,4.7-8.2,9.4-9.2C25.7,0.8,31.9,0,38.2,0s12.5,0.8,17.9,2.4c4.7,1.1,7.8,6.1,9.3,9.2c7.1,0.5,10.1,6.6,10.6,10
		c0.3,1.8-0.1,3.6-1,5.2c2.1,6,1.3,14.3,0.7,21c-0.1,1.4-0.2,4.6-0.3,5.5c-0.1,4.4-3.8,8.1-8.3,8.1H58.3z M57.8,47.3l-0.1,6
		c0,0.3,0.2,0.7,0.7,0.7h8.8c0.5,0,1-0.5,1-1c0-1,0.2-4.4,0.3-5.9c0.6-6.7,1.8-19.2-2.7-20.9l-2-0.8l2.1-0.6c2.2-0.6,3.1-1.5,3-2.1
		c-0.1-0.7-1.7-1.8-4.9-1.8c-0.3,0-0.6,0-0.9,0l-2,2.7l-0.4-1.6c-1.2-5.2-4.6-12.3-6.4-12.6C49.5,8,43.9,7.3,38.2,7.3
		c-5.7,0-11.3,0.8-16.1,2.2c-1.9,0.3-5.3,7.3-6.5,12.6l-0.4,1.6l-2-2.7c-0.3,0-0.6,0-0.9,0c-3.2,0-4.8,1.1-4.9,1.8
		c-0.1,0.6,0.8,1.5,3,2.1l2.1,0.6l-2,0.8C6.1,28,7.3,40.5,7.9,47.2C8.1,48.7,8.2,52,8.2,53c0,0.6,0.5,1.1,1.1,1.1h8.7
		c0.2,0,0.4-0.1,0.5-0.2c0.1-0.1,0.2-0.2,0.1-0.5l-0.1-6.1H57.8z"/>
	<path class="st0" d="M16.6,36.6c2,0,3.7-1.7,3.7-3.7c0-2.1-1.7-3.7-3.7-3.7c-2.1,0-3.7,1.7-3.7,3.7C12.9,34.9,14.5,36.6,16.6,36.6"
		/>
	<path class="st0" d="M59.8,36.6c2,0,3.7-1.7,3.7-3.7c0-2.1-1.7-3.7-3.7-3.7c-2.1,0-3.7,1.7-3.7,3.7C56,34.9,57.7,36.6,59.8,36.6"/>
	<rect x="28.7" y="32.1" class="st0" width="19.6" height="7.5"/>
</g>
</svg>
