<?xml version="1.0" encoding="UTF-8"?><svg id="Layer_1" xmlns="http://www.w3.org/2000/svg" viewBox="0 0 76.41 76.41"><defs><style>.cls-1{fill:#05141f;}</style></defs><path class="cls-1" d="M22.79,16.34c0,1.85,1.5,3.34,3.34,3.34s3.34-1.5,3.34-3.34-1.5-3.34-3.34-3.34-3.34,1.5-3.34,3.34Z"/><path class="cls-1" d="M76.41,65.04c0-2.48-.8-4.76-2.15-6.63h0L39.69,7.22l-.02-.03h-.01C36.72,2.85,31.76,0,26.13,0c-.69,0-1.36,.06-2.02,.14l-.3-.14-.26,.22c-6.9,1.1-12.35,6.51-13.51,13.39l-.02,.02L.27,64.64c-.06,.26-.11,.52-.15,.78l-.02,.09h0c-.06,.44-.1,.88-.1,1.34,0,5.28,4.28,9.55,9.55,9.55h55.57c6.24-.05,11.28-5.12,11.28-11.37Zm-21.97,4.07H18.82c.17-.72,.28-1.47,.28-2.25,0-5.27-4.28-9.55-9.55-9.55-.15,0-.29,.02-.43,.02l5.62-29.28c2.94,2.87,6.96,4.64,11.4,4.64,6.88,0,12.75-4.25,15.16-10.27l21.05,31.59c-4.97,1.21-8.67,5.69-8.67,11.03,0,1.43,.28,2.8,.76,4.07Zm-44.88-5.59c1.85,0,3.34,1.5,3.34,3.34s-1.5,3.34-3.34,3.34-3.34-1.5-3.34-3.34,1.5-3.34,3.34-3.34ZM34.81,16.34c0,4.92-3.89,8.93-8.67,8.93s-8.67-4-8.67-8.93,3.89-8.93,8.67-8.93,8.67,4,8.67,8.93Zm30.23,52.67c-2.2,0-3.98-1.78-3.98-3.98s1.78-3.98,3.98-3.98,3.98,1.78,3.98,3.98-1.78,3.98-3.98,3.98Z"/></svg>