<?xml version="1.0" encoding="utf-8"?>
<!-- Generator: Adobe Illustrator 24.2.0, SVG Export Plug-In . SVG Version: 6.00 Build 0)  -->
<svg version="1.1" id="Layer_1" xmlns="http://www.w3.org/2000/svg" xmlns:xlink="http://www.w3.org/1999/xlink" x="0px" y="0px"
	 viewBox="0 0 76.4 89.9" style="enable-background:new 0 0 76.4 89.9;" xml:space="preserve">
<style type="text/css">
	.st0{fill:#05141f;}
</style>
<path class="st0" d="M74.5,21.2H53.2c4-3.9,6.7-9.2,7.2-15c0.1-0.7,0.1-1.4,0.1-2.1V0h-4c-0.8,0-1.5,0-2.3,0.1
	c-0.2,0-0.4,0.1-0.6,0.1l-0.2,0l-0.3,0c-0.3,0-0.6,0.1-0.9,0.1l-3.3,0.9c-4.2,1.4-8,4.1-10.8,7.5c-2.9-3.5-6.7-6.1-10.9-7.5
	l-3.1-0.8c-0.3-0.1-0.6-0.1-0.9-0.1l-0.2,0l-0.2,0c-0.2,0-0.4-0.1-0.6-0.1C21.2,0,20.5,0,19.7,0h-4v4c0,0.7,0,1.4,0.1,2.1
	c0.5,5.9,3.2,11.1,7.2,15H1.9C0.9,21.2,0,22,0,23.1V49c0,1.1,0.9,1.9,1.9,1.9h5.7V88c0,1.1,0.9,1.9,1.9,1.9h57.3
	c1.1,0,1.9-0.9,1.9-1.9V50.9h5.7c1.1,0,1.9-0.9,1.9-1.9V23.1C76.4,22,75.5,21.2,74.5,21.2z M52.4,7.9c-1.4,5.8-5.9,10.4-11.6,12
	C42.2,14.1,46.7,9.5,52.4,7.9z M35.4,19.9c-5.7-1.5-10.2-6.2-11.6-12C29.5,9.5,34,14.1,35.4,19.9z M7.6,28.8h26.9v14.5H7.6V28.8z
	 M15.3,50.9h19.3v31.4H15.3V50.9z M61.1,82.3H41.7V50.9h19.4V82.3z M68.8,43.3H41.7V28.8h27.1V43.3z"/>
</svg>
