<?xml version="1.0" encoding="UTF-8"?><svg id="Layer_1" xmlns="http://www.w3.org/2000/svg" viewBox="0 0 63.6 76.4"><defs><style>.cls-1{fill:#00081e;}</style></defs><path class="cls-1" d="M54.29,9.31C41.87-3.1,21.73-3.1,9.31,9.31c-12.42,12.42-12.42,32.55,0,44.97h0l21.64,21.64c.04,.07,.09,.14,.15,.2,.37,.37,.97,.37,1.34,0l21.84-21.84h0c12.42-12.42,12.42-32.55,0-44.97m-5.37,39.9l-17.12,17.24L14.68,49.21c-9.45-9.52-9.45-24.96,0-34.48,9.45-9.52,24.78-9.52,34.23,0,9.45,9.52,9.45,24.96,0,34.48"/><path class="cls-1" d="M46.37,31.46c0-7.86-6.37-14.24-14.24-14.24s-14.24,6.37-14.24,14.24,6.37,14.24,14.24,14.24,14.24-6.37,14.24-14.24m-7.59,0c0,3.67-2.97,6.65-6.65,6.65s-6.64-2.98-6.64-6.65,2.97-6.65,6.64-6.65,6.65,2.98,6.65,6.65"/></svg>