<?xml version="1.0" encoding="UTF-8"?><svg id="Layer_1" xmlns="http://www.w3.org/2000/svg" viewBox="0 0 76.41 76.4"><defs><style>.cls-1{fill:#05141f;}</style></defs><path class="cls-1" d="M50.11,68.02c1.45-.57,2.88-1.25,4.27-2.05s2.7-1.68,3.93-2.64l8.46,2.25,9.64-16.54-6.22-6.16c.45-3.07,.46-6.21,0-9.33l6.23-6.17-9.64-16.54-8.57,2.28c-2.46-1.92-5.18-3.45-8.05-4.58L47.84,0H28.57l-2.31,8.55c-1.41,.56-2.8,1.23-4.16,2-1.36,.78-2.63,1.64-3.83,2.57l-8.63-2.29h0L0,27.37H0l6.3,6.24c-.45,3.03-.47,6.13-.02,9.2L0,49.03h0l9.64,16.54,8.51-2.26c2.49,1.96,5.24,3.53,8.15,4.67l2.28,8.42h19.28l2.27-8.38Zm-17.29-5.4c-5.06-1.06-9.77-3.65-13.36-7.56l-6.52,1.86-3.72-6.39,4.91-4.69c-1.58-5.01-1.47-10.3,.13-15.13l-5.04-4.82,3.72-6.39,6.84,1.94c1.69-1.8,3.67-3.38,5.93-4.67,2.26-1.29,4.64-2.2,7.05-2.75l1.72-6.84h7.44l1.69,6.74c5.03,1.04,9.71,3.59,13.29,7.46l6.56-1.87,3.72,6.39-4.89,4.67c1.63,5.04,1.54,10.37-.07,15.25l4.96,4.74-3.72,6.39-6.69-1.9c-1.71,1.83-3.71,3.45-6.01,4.76-2.3,1.31-4.71,2.23-7.16,2.78l-1.68,6.69h-7.44l-1.66-6.62Z"/><path class="cls-1" d="M38.27,22.92c-8.52,0-15.42,6.84-15.42,15.28s6.9,15.28,15.42,15.28,15.42-6.84,15.42-15.28-6.9-15.28-15.42-15.28m0,23.16c-4.26,0-7.71-3.53-7.71-7.88s3.45-7.88,7.71-7.88,7.71,3.53,7.71,7.88-3.45,7.88-7.71,7.88"/></svg>