<svg width="28" height="30" viewBox="0 0 28 30" fill="none" xmlns="http://www.w3.org/2000/svg">
<path d="M27.2695 29.3183V0.681737C27.2695 0.30696 26.9661 0 26.5877 0H0.681737C0.30696 0 0 0.30696 0 0.681737V29.3183C0 29.693 0.30696 30 0.681737 30H26.5913C26.9661 30 27.2731 29.693 27.2731 29.3183M24.5461 27.2731H2.72695V2.72695H24.5425V27.2731H24.5461Z" fill="#00081E"/>
<path d="M21.8158 16.3652H19.0889V24.546H21.8158V16.3652Z" fill="#00081E"/>
<path d="M21.8158 10.9079H19.0889V13.6348H21.8158V10.9079Z" fill="#00081E"/>
<path d="M8.18081 21.8192H5.45386V24.5462H8.18081V21.8192Z" fill="#00081E"/>
<path d="M8.18081 10.9079H5.45386V13.6348H8.18081V10.9079Z" fill="#00081E"/>
<path d="M8.18081 16.3652H5.45386V19.0921H8.18081V16.3652Z" fill="#00081E"/>
<path d="M13.6347 21.8193H10.9077V24.5462H13.6347V21.8193Z" fill="#00081E"/>
<path d="M13.6347 10.9079H10.9077V13.6348H13.6347V10.9079Z" fill="#00081E"/>
<path d="M13.6347 16.3652H10.9077V19.0921H13.6347V16.3652Z" fill="#00081E"/>
<path d="M21.8155 5.4538H5.45386V8.18074H21.8155V5.4538Z" fill="#00081E"/>
</svg>
