<?xml version="1.0" encoding="utf-8"?>
<!-- Generator: Adobe Illustrator 24.2.0, SVG Export Plug-In . SVG Version: 6.00 Build 0)  -->
<svg version="1.1" id="Layer_1" xmlns="http://www.w3.org/2000/svg" xmlns:xlink="http://www.w3.org/1999/xlink" x="0px" y="0px"
	 viewBox="0 0 76.4 76.4" style="enable-background:new 0 0 76.4 76.4;" xml:space="preserve">
<style type="text/css">
	.st0{fill:#05141f;}
</style>
<g>
	<ellipse transform="matrix(0.9732 -0.2298 0.2298 0.9732 -12.9831 5.6751)" class="st0" cx="17.9" cy="58.6" rx="5.4" ry="5.4"/>
	<path class="st0" d="M74.5,40.6H60.8l10.4-10.4c0.7-0.7,0.7-2,0-2.7L48.6,5c-0.7-0.7-2-0.7-2.7,0L35.8,15.1V1.9
		c0-1.1-0.9-1.9-1.9-1.9H1.9C0.9,0,0,0.9,0,1.9v40.6v31.9c0,1.1,0.9,1.9,1.9,1.9h31.9h40.6c1.1,0,1.9-0.9,1.9-1.9V42.6
		C76.4,41.5,75.5,40.6,74.5,40.6z M47.2,14.4l14.5,14.5L35.8,54.9v-29L47.2,14.4z M7.6,7.6h20.5v61.1H7.6V48.3V7.6z M68.8,68.8h-33
		v-3.1l17.4-17.4h15.6V68.8z"/>
</g>
</svg>
