<?xml version="1.0" encoding="utf-8"?>
<!-- Generator: Adobe Illustrator 26.3.1, SVG Export Plug-In . SVG Version: 6.00 Build 0)  -->
<svg version="1.1" id="Layer_1" xmlns="http://www.w3.org/2000/svg" xmlns:xlink="http://www.w3.org/1999/xlink" x="0px" y="0px"
	 viewBox="0 0 76.4 76.4" style="enable-background:new 0 0 76.4 76.4;" xml:space="preserve">
<style type="text/css">
	.st0{fill:#05141F;}
</style>
<path class="st0" d="M76.4,74.5V38.2V31V9.6c0-1.1-0.9-1.9-1.9-1.9H60.9V0h-7.2v7.6H41.8V0h-7.2v7.6H22.7V0h-7.2v7.6H1.9
	C0.9,7.6,0,8.5,0,9.6V31v7.2v36.3c0,1.1,0.9,1.9,1.9,1.9h72.6C75.5,76.4,76.4,75.5,76.4,74.5L76.4,74.5z M7.6,15.3h7.9v7.6h7.2v-7.6
	h11.9v7.6h7.2v-7.6h11.9v7.6h7.2v-7.6h7.9V31H7.6V15.3z M7.6,68.8V38.2h61.1v30.6H7.6z"/>
</svg>
