<?xml version="1.0" encoding="UTF-8"?><svg id="Layer_1" xmlns="http://www.w3.org/2000/svg" viewBox="0 0 76.4 64.95"><defs><style>.cls-1{fill:#05141f;}</style></defs><g><rect class="cls-1" x="30.56" y="15.28" width="45.84" height="7.64" rx="1.9" ry="1.9"/><rect class="cls-1" x="30.56" y="0" width="38.2" height="7.64" rx="1.9" ry="1.9"/></g><g><rect class="cls-1" x="30.56" y="57.3" width="45.84" height="7.64" rx="1.9" ry="1.9"/><rect class="cls-1" x="30.56" y="42.02" width="38.2" height="7.64" rx="1.9" ry="1.9"/></g><path class="cls-1" d="M11.46,7.6c2.13,0,3.86,1.73,3.86,3.86s-1.73,3.86-3.86,3.86-3.86-1.73-3.86-3.86,1.73-3.86,3.86-3.86m0-7.6h0C5.13,0,0,5.13,0,11.46s5.13,11.46,11.46,11.46h0c6.33,0,11.46-5.13,11.46-11.46S17.79,0,11.46,0h0Z"/><path class="cls-1" d="M11.46,49.62c2.13,0,3.86,1.73,3.86,3.86s-1.73,3.86-3.86,3.86-3.86-1.73-3.86-3.86,1.73-3.86,3.86-3.86m0-7.6h0c-6.33,0-11.46,5.13-11.46,11.46s5.13,11.46,11.46,11.46h0c6.33,0,11.46-5.13,11.46-11.46s-5.13-11.46-11.46-11.46h0Z"/></svg>