<?xml version="1.0" encoding="UTF-8"?><svg id="Layer_1" xmlns="http://www.w3.org/2000/svg" viewBox="0 0 76.41 76.41"><defs><style>.cls-1{fill:#05141f;}</style></defs><rect class="cls-1" x="34.62" y="15.57" width="7.16" height="43.76"/><rect class="cls-1" x="63.27" y="14.33" width="7.16" height="47.75"/><rect class="cls-1" x="5.97" y="14.33" width="7.16" height="23.88"/><rect class="cls-1" x="5.97" y="34.22" width="59.55" height="7.96"/><path class="cls-1" d="M9.55,0C4.28,0,0,4.28,0,9.55s4.28,9.55,9.55,9.55,9.55-4.28,9.55-9.55S14.83,0,9.55,0Zm0,12.89c-1.85,0-3.34-1.5-3.34-3.34s1.5-3.34,3.34-3.34,3.34,1.5,3.34,3.34-1.5,3.34-3.34,3.34Z"/><path class="cls-1" d="M66.85,0c-5.27,0-9.55,4.28-9.55,9.55s4.28,9.55,9.55,9.55,9.55-4.28,9.55-9.55S72.13,0,66.85,0Zm0,12.89c-1.85,0-3.34-1.5-3.34-3.34s1.5-3.34,3.34-3.34,3.34,1.5,3.34,3.34-1.5,3.34-3.34,3.34Z"/><path class="cls-1" d="M38.2,0c-5.27,0-9.55,4.28-9.55,9.55s4.28,9.55,9.55,9.55,9.55-4.28,9.55-9.55S43.48,0,38.2,0Zm0,12.89c-1.85,0-3.34-1.5-3.34-3.34s1.5-3.34,3.34-3.34,3.34,1.5,3.34,3.34-1.5,3.34-3.34,3.34Z"/><path class="cls-1" d="M66.85,57.3c-5.27,0-9.55,4.28-9.55,9.55s4.28,9.55,9.55,9.55,9.55-4.28,9.55-9.55-4.28-9.55-9.55-9.55Zm0,12.89c-1.85,0-3.34-1.5-3.34-3.34s1.5-3.34,3.34-3.34,3.34,1.5,3.34,3.34-1.5,3.34-3.34,3.34Z"/><path class="cls-1" d="M38.2,57.3c-5.27,0-9.55,4.28-9.55,9.55s4.28,9.55,9.55,9.55,9.55-4.28,9.55-9.55-4.28-9.55-9.55-9.55Zm0,12.89c-1.85,0-3.34-1.5-3.34-3.34s1.5-3.34,3.34-3.34,3.34,1.5,3.34,3.34-1.5,3.34-3.34,3.34Z"/></svg>