<?xml version="1.0" encoding="utf-8"?>
<!-- Generator: Adobe Illustrator 24.2.0, SVG Export Plug-In . SVG Version: 6.00 Build 0)  -->
<svg version="1.1" id="Layer_1" xmlns="http://www.w3.org/2000/svg" xmlns:xlink="http://www.w3.org/1999/xlink" x="0px" y="0px"
	 viewBox="0 0 82.4 76.5" style="enable-background:new 0 0 82.4 76.5;" xml:space="preserve">
<style type="text/css">
	.st0{fill:#05141f;}
</style>
<g>
	<path class="st0" d="M80.5,30.8h-4.1V14.7c0-1.1-0.9-1.9-1.9-1.9h-3l-3-11.4c-0.3-1-1.3-1.6-2.3-1.4L18.6,12.8H1.9
		c-1.1,0-1.9,0.9-1.9,1.9v59.9c0,1.1,0.9,1.9,1.9,1.9h72.6c1.1,0,1.9-0.9,1.9-1.9V58.5h4.1c1.1,0,1.9-0.9,1.9-1.9V32.7
		C82.4,31.6,81.6,30.8,80.5,30.8z M62.5,8.9l1,3.8H48.2L62.5,8.9z M68.8,68.9H7.6V20.4h61.1v10.4H40.9c-1.1,0-1.9,0.9-1.9,1.9v23.9
		c0,1.1,0.9,1.9,1.9,1.9h27.9V68.9z M74.8,50.9H46.6V38.4h28.1V50.9z"/>
	<circle class="st0" cx="53.1" cy="44.8" r="3.3"/>
</g>
</svg>
