<?xml version="1.0" encoding="utf-8"?>
<!-- Generator: Adobe Illustrator 24.2.0, SVG Export Plug-In . SVG Version: 6.00 Build 0)  -->
<svg version="1.1" id="Layer_1" xmlns="http://www.w3.org/2000/svg" xmlns:xlink="http://www.w3.org/1999/xlink" x="0px" y="0px"
	 viewBox="0 0 78.4 78.7" style="enable-background:new 0 0 78.4 78.7;" xml:space="preserve">
<style type="text/css">
	.st0{fill:#05141f;}
</style>
<g>
	<path class="st0" d="M71.8,57l-15.6-7.8c-0.5-0.2-1-0.4-1.6-0.4c-0.9,0-1.8,0.4-2.5,1l-6.2,6.2c-11.3-3-20.3-12-23.3-23.3l6.2-6.2
		c1.1-1.1,1.3-2.7,0.7-4.1L21.7,6.9c-0.6-1.2-1.8-2-3.2-2h0c-0.1,0-0.1,0-0.2,0C8,5.6,0,14.1,0,24.4c0,14.5,5.7,28.2,15.9,38.4
		C26.2,73,39.8,78.7,54.3,78.7c10.3,0,18.8-8,19.4-18.3C73.8,59,73.1,57.7,71.8,57z M54.3,71.6c-12.6,0-24.5-4.9-33.4-13.8
		C12,48.8,7.1,37,7.1,24.4c0-5.7,3.9-10.6,9.4-12l5.5,11l-5.2,5.2c-1.2,1.2-1.8,3-1.4,4.7c3.4,14.8,15.2,26.6,30,30
		c0.4,0.1,0.8,0.1,1.2,0.1c1.4,0,2.6-0.5,3.6-1.5l5.2-5.2l11,5.5C65,67.6,60,71.6,54.3,71.6z"/>
	<g>
		<path class="st0" d="M69.5,10.5C60.7,1,47.6-2.1,35.9,1.3l1.5,5c9.8-2.9,20.8-0.3,28.3,7.7c7.4,8,9.3,19.2,5.7,28.8l4.9,1.8
			C80.6,33.3,78.4,20,69.5,10.5"/>
		<path class="st0" d="M58,21.2c4.7,5,5.8,12,3.6,18l4.9,1.8c2.9-7.8,1.4-16.9-4.7-23.4c-6.1-6.5-15-8.6-23-6.3l1.5,5
			C46.5,14.6,53.4,16.2,58,21.2"/>
		<path class="st0" d="M50.4,28.4c1.9,2,2.3,4.8,1.4,7.2l4.9,1.8c1.6-4.2,0.7-9.1-2.5-12.6c-3.3-3.5-8.1-4.6-12.4-3.4l1.5,5
			C45.8,25.7,48.5,26.4,50.4,28.4"/>
	</g>
</g>
</svg>
