<?xml version="1.0" encoding="UTF-8"?><svg id="Layer_1" xmlns="http://www.w3.org/2000/svg" viewBox="0 0 76.41 76.41"><defs><style>.cls-1{fill:#05141f;}</style></defs><path class="cls-1" d="M38.2,0C17.1,0,0,17.1,0,38.2s17.1,38.2,38.2,38.2,38.2-17.1,38.2-38.2S59.3,0,38.2,0Zm27.83,25.58l-14.73,4.79c-2.07-3.46-5.47-6.03-9.5-7.01V7.86c10.82,1.27,19.9,8.19,24.23,17.72Zm-20.19,12.62c0,4.35-3.42,7.88-7.64,7.88s-7.64-3.53-7.64-7.88,3.42-7.88,7.64-7.88,7.64,3.53,7.64,7.88ZM34.6,7.86v15.51c-4.03,.98-7.43,3.54-9.5,7l-14.73-4.79c4.33-9.54,13.41-16.45,24.23-17.72ZM7.64,38.2c0-1.97,.19-3.88,.55-5.75l14.78,4.81c-.02,.31-.05,.62-.05,.94,0,3.82,1.41,7.3,3.73,9.98l-9.11,12.53c-6.08-5.59-9.9-13.6-9.9-22.51Zm30.56,30.56c-5.38,0-10.43-1.39-14.82-3.83l9.13-12.55c1.76,.71,3.68,1.11,5.69,1.11s3.94-.4,5.7-1.11l9.12,12.56c-4.39,2.44-9.44,3.83-14.82,3.83Zm20.67-8.05l-9.11-12.54c2.31-2.68,3.72-6.16,3.72-9.97,0-.32-.03-.63-.05-.95l14.78-4.81c.35,1.86,.55,3.78,.55,5.75,0,8.91-3.81,16.92-9.89,22.51Z"/></svg>