<svg viewBox="0 0 26 30" fill="none" xmlns="http://www.w3.org/2000/svg">
<path d="M25.3534 7.06216H18.1013C19.4796 5.76448 20.3882 3.99978 20.5652 2.04826C20.589 1.81474 20.6026 1.58123 20.6026 1.33437V0H19.2414C18.9861 0 18.7275 0.0133437 18.4552 0.0400311C18.3838 0.046703 18.3089 0.0567108 18.2374 0.0667186L18.1762 0.0767263L18.0911 0.0867341C17.9822 0.100078 17.8733 0.113422 17.7678 0.133437L16.6516 0.423663C15.2154 0.904037 13.9393 1.77471 12.9762 2.91894C12.0063 1.76471 10.7097 0.884021 9.25314 0.406983L8.18796 0.133437C8.08246 0.113422 7.97356 0.100078 7.86466 0.0867341L7.77958 0.0767263L7.71832 0.0667186C7.64686 0.0567108 7.57199 0.046703 7.49712 0.0400311C7.22487 0.0133437 6.96623 0 6.71099 0H5.34974V1.33437C5.34974 1.58123 5.35995 1.81474 5.38717 2.04826C5.56414 4.00311 6.47618 5.76782 7.85445 7.06216H0.65C0.29267 7.06216 0 7.34905 0 7.69932V16.3527C0 16.703 0.289267 16.9899 0.65 16.9899H2.6V29.3628C2.6 29.7131 2.89267 30 3.25 30H22.75C23.1073 30 23.4 29.7131 23.4 29.3628V16.9932H25.35C25.7073 16.9932 26 16.7063 26 16.3561V7.69932C26 7.34905 25.7107 7.06216 25.35 7.06216H25.3534ZM17.8427 2.64539C17.356 4.57356 15.8314 6.12143 13.8882 6.63182C14.3749 4.70366 15.8995 3.15579 17.8427 2.64539ZM12.0607 6.63182C10.1141 6.12143 8.58953 4.57356 8.10628 2.64539C10.0529 3.15579 11.5775 4.70366 12.0607 6.63182ZM2.6 9.61081H11.7545V14.4412H2.6V9.61081ZM5.2 16.9899H11.7545V27.4514H5.2V16.9899ZM20.8 27.4514H14.1911V16.9899H20.8V27.4514ZM23.4 14.4412H14.1911V9.61081H23.4V14.4412Z" fill="#05141F"/>
</svg>
