<?xml version="1.0" encoding="UTF-8"?><svg id="Layer_1" xmlns="http://www.w3.org/2000/svg" viewBox="0 0 76.4 76.41"><defs><style>.cls-1{fill:#05141f;}</style></defs><path class="cls-1" d="M76.4,74.49V1.91c0-1.05-.85-1.91-1.91-1.91H1.91C.86,0,0,.86,0,1.91V74.49c0,1.05,.86,1.91,1.91,1.91H74.5c1.05,0,1.91-.86,1.91-1.91m-7.64-5.73H7.64V7.64h61.12v61.12Z"/><rect class="cls-1" x="14.64" y="14.64" width="47.12" height="7.16"/><rect class="cls-1" x="14.64" y="28.8" width="30.65" height="7.16"/><path class="cls-1" d="M18.54,43.11l7.77,13.62v-13.62h3.46v18.65h-3.83l-7.83-13.58v13.58h-3.46v-18.65h3.9Zm20.4,6.26c-.75,.76-1.66,1.13-2.74,1.13s-1.95-.38-2.71-1.15-1.15-1.67-1.15-2.72,.37-1.97,1.12-2.74c.76-.76,1.67-1.15,2.74-1.15s2.01,.37,2.75,1.12c.75,.75,1.12,1.67,1.12,2.76s-.38,1.99-1.13,2.74Zm1.16,2.82v1.59h-7.75v-1.59h7.75Zm-5.39-4.04c.41,.42,.91,.63,1.49,.63,.62,0,1.13-.21,1.54-.62,.4-.41,.6-.92,.6-1.53s-.21-1.13-.62-1.55c-.41-.43-.92-.64-1.53-.64s-1.08,.22-1.49,.67c-.4,.43-.6,.94-.6,1.53s.2,1.1,.6,1.52Z"/></svg>